<svg width="425" height="241" viewBox="0 0 425 241" fill="none" xmlns="http://www.w3.org/2000/svg">
<path d="M108.267 186.93L119.14 147.919H91L107.308 91H291.814L280.942 129.372H366L350.012 186.93H108.267Z" fill="black"/>
<path d="M107.786 186.796L107.609 187.43H108.267H350.012H350.392L350.493 187.064L366.482 129.506L366.658 128.872H366H281.603L292.295 91.1363L292.475 90.5H291.814H107.308H106.931L106.827 90.8623L90.5193 147.781L90.3366 148.419H91H118.481L107.786 186.796Z" stroke="white" stroke-opacity="0.5"/>
<path d="M170.622 111.785L168.384 119.14H157.192L159.43 111.785H170.622V111.785ZM152.395 136.727L154.954 127.454H167.105C173.5 127.454 177.337 124.576 179.256 118.5L180.215 114.983C182.454 107.308 178.936 102.192 170.622 102.192H118.18L108.268 136.407H152.395V136.727Z" fill="#F8FF13"/>
<path d="M198.762 111.785H202.919V122.657H192.686L198.762 111.785ZM184.692 136.727L187.89 130.971H202.919V136.727H212.831V102.511H193.645L173.5 136.727H184.692V136.727Z" fill="#F8FF13"/>
<path d="M232.976 111.785H243.849L241.93 119.139H230.738L232.976 111.785ZM252.802 118.5L253.761 115.302C256 107.308 252.482 102.511 244.168 102.511H225.622L215.709 136.727H225.942L228.5 127.453H234.895L237.773 136.727H248.325L245.128 126.814C248.965 125.535 251.523 122.977 252.802 118.5Z" fill="#F8FF13"/>
<path d="M262.396 136.727L272.308 102.511H262.076L252.163 136.727H262.396Z" fill="#F8FF13"/>
<path d="M198.442 141.523L186.61 155.273L182.133 141.523H137.686L128.093 175.739H172.221L177.657 156.872L181.174 167.425H187.57L197.163 156.233L191.726 175.739H201.959L211.552 141.523H198.442Z" fill="#F8FF13"/>
<path d="M224.343 161.669L230.419 150.797H234.576V161.669H224.343ZM225.303 141.523L205.157 175.739H216.669L219.867 169.983H234.896V175.739H244.808V141.523H225.303Z" fill="#F8FF13"/>
<path d="M279.343 151.436L281.901 141.523H250.884L248.006 151.436H259.198L252.483 175.739H262.715L269.43 151.436H279.343Z" fill="#F8FF13"/>
<path d="M292.773 151.436H308.442L311.32 141.523H294.692C288.297 141.523 284.459 144.401 282.541 150.477L279.023 162.948C276.785 170.942 280.302 175.739 288.616 175.739H301.407L304.285 165.826H288.616L292.773 151.436Z" fill="#F8FF13"/>
<path d="M337.541 141.523L334.023 153.994H322.512L326.029 141.523H315.797L305.884 175.739H316.116L319.634 163.587H331.465L327.948 175.739H338.18L347.773 141.523H337.541Z" fill="#F8FF13"/>
<path d="M64.196 0L61.396 3.92L58.554 0H57.154L60.598 4.816L57 9.8H58.4L61.354 5.726L64.322 9.8H65.736L62.138 4.816L65.61 0H64.196Z" fill="white"/>
<path d="M7.196 114L4.396 117.92L1.554 114H0.154L3.598 118.816L0 123.8H1.4L4.354 119.726L7.322 123.8H8.736L5.138 118.816L8.61 114H7.196Z" fill="white"/>
<rect x="13" y="90" width="354" height="1" fill="white"/>
<rect x="13" y="148" width="78" height="1" fill="white"/>
<rect x="90" y="187" width="277" height="1" fill="white"/>
<rect x="32" y="240" width="393" height="1" fill="white"/>
<rect x="32" y="32" width="393" height="1" fill="white"/>
<rect x="91" y="13" width="175" height="1" transform="rotate(90 91 13)" fill="white"/>
<rect x="33" y="13" width="227" height="1" transform="rotate(90 33 13)" fill="white"/>
<rect x="425" y="32" width="209" height="1" transform="rotate(90 425 32)" fill="white"/>
<rect x="366" y="188" width="98" height="1" transform="rotate(-90 366 188)" fill="white"/>
<rect x="89" y="16" width="1" height="55" transform="rotate(90 89 16)" fill="white"/>
<path fill-rule="evenodd" clip-rule="evenodd" d="M33 16.5L39.0622 13L39.5622 13.866L34.8828 16.5L39.5622 19.134L39.0622 20L33 16.5Z" fill="white"/>
<path fill-rule="evenodd" clip-rule="evenodd" d="M90.5625 16.5L84.5003 13L84.0003 13.866L88.6797 16.5L84.0003 19.134L84.5003 20L90.5625 16.5Z" fill="white"/>
<rect x="16" y="93" width="1" height="54" fill="white"/>
<path fill-rule="evenodd" clip-rule="evenodd" d="M16.5 148.562L13 142.5L13.866 142L16.5 146.679L19.134 142L20 142.5L16.5 148.562Z" fill="white"/>
<path fill-rule="evenodd" clip-rule="evenodd" d="M16.5 91L13 97.0622L13.866 97.5622L16.5 92.8828L19.134 97.5622L20 97.0622L16.5 91Z" fill="white"/>
</svg>
